<svg width="137" height="131" viewBox="0 0 137 131" fill="none" xmlns="http://www.w3.org/2000/svg">
<path fill-rule="evenodd" clip-rule="evenodd" d="M45.6866 4.55509L34.4546 9.05409L30.7046 6.50509C22.2366 0.75109 11.4886 5.31509 8.27863 16.0291C7.34063 19.1611 7.44363 20.6781 8.86563 24.6441C10.9806 30.5421 10.9976 29.2911 8.55763 47.4571C7.44963 55.7071 5.85563 69.8821 5.01563 78.9571C3.25263 98.0201 1.72163 112.877 0.517632 122.614C0.0516324 126.378 -0.134369 129.795 0.103631 130.207C0.817631 131.444 3.41764 131.053 3.42764 129.707C3.43264 129.02 4.29363 120.582 5.34163 110.957C6.38963 101.332 7.53364 90.0821 7.88464 85.9571C8.23464 81.8321 9.66263 68.3521 11.0576 56.0011C14.9036 21.9461 16.2136 20.1891 46.9186 7.8701C57.4086 3.6621 58.3826 3.4591 67.9186 3.4951C77.6136 3.5321 78.3126 3.69209 90.8226 8.74009C97.9196 11.6041 105.671 15.0871 108.048 16.4801C113.099 19.4401 118.679 26.3481 120.809 32.2781C121.634 34.5761 124.363 55.5821 126.872 78.9571C132.832 134.471 132.157 129.957 134.499 129.957C136.007 129.957 136.345 129.44 135.97 127.707C135.702 126.469 134.339 114.432 132.942 100.957C131.545 87.4821 129.962 72.8571 129.425 68.4571C128.888 64.0571 127.74 54.6071 126.873 47.4571C126.006 40.3071 125.077 33.5521 124.809 32.4451C124.541 31.3391 125.019 28.7661 125.87 26.7281C130.349 16.0081 124.422 5.2241 113.487 4.2011C109.75 3.8511 108.207 4.26009 105.009 6.44409L101.099 9.11409L89.5086 4.5351C78.2806 0.0980964 77.5906 -0.0429032 67.4186 0.00609676C57.3606 0.0540968 56.4456 0.246093 45.6866 4.55509ZM26.9506 8.40609C28.8576 9.20309 30.4186 10.0601 30.4186 10.3111C30.4186 10.5621 28.4146 11.9411 25.9656 13.3761C23.5166 14.8121 19.6126 18.2401 17.2896 20.9951C12.6766 26.4661 11.4606 26.2301 11.4336 19.8551C11.4086 13.7861 16.3606 8.38209 23.2006 7.01309C23.3556 6.98209 25.0436 7.60909 26.9506 8.40609ZM119.189 9.91709C122.468 12.6511 124.444 18.0311 123.747 22.3251C123.423 24.3231 122.826 25.9571 122.421 25.9571C122.016 25.9571 120.515 24.1891 119.084 22.0271C116.586 18.2531 108.712 11.9571 106.489 11.9571C104.816 11.9571 105.234 10.1641 107.169 9.0371C110.065 7.3501 116.693 7.83509 119.189 9.91709ZM55.2306 55.2131C51.5516 62.4971 48.2526 70.0731 47.8986 72.0481C47.0496 76.7901 48.7636 82.8011 51.9376 86.2071C54.4796 88.9351 54.6026 88.9571 67.5356 88.9571H80.5726L83.4956 86.0341C86.2456 83.2841 86.4186 82.6311 86.4186 74.9991C86.4186 67.2711 86.2126 66.5231 82.0596 59.1721C79.6616 54.9291 76.7616 49.3191 75.6156 46.7071L73.5306 41.9571L67.7246 41.9631L61.9186 41.9691L55.2306 55.2131ZM43.8086 44.3841C43.5066 45.1691 43.4086 46.8571 43.5896 48.1341C43.8446 49.9331 44.6446 50.5271 47.1346 50.7681C49.8726 51.0331 50.4456 50.6971 50.9956 48.5051C51.3736 47.0011 51.1286 45.3131 50.4076 44.4441C48.8366 42.5501 44.5266 42.5111 43.8086 44.3841ZM84.4186 47.4571C84.4186 50.8741 84.5136 50.9571 88.4186 50.9571C92.3236 50.9571 92.4186 50.8741 92.4186 47.4571C92.4186 44.0401 92.3236 43.9571 88.4186 43.9571C84.5136 43.9571 84.4186 44.0401 84.4186 47.4571ZM73.8096 50.3101C74.7236 52.7041 77.0506 57.2851 78.9806 60.4891C82.3926 66.1561 82.4806 66.5651 82.2036 75.3871L81.9186 84.4571L76.1686 84.7571C71.1456 85.0191 70.4186 84.8241 70.4186 83.2191C70.4186 82.2081 71.7506 79.8231 73.3776 77.9191C76.9366 73.7561 77.4596 68.5851 74.4846 66.9921C71.3646 65.3231 62.3426 65.7151 60.2476 67.6121C57.6226 69.9871 57.9606 72.0751 61.9186 77.9571C63.8436 80.8181 65.4186 83.5631 65.4186 84.0571C65.4186 84.5521 62.9986 84.9571 60.0406 84.9571C53.4166 84.9571 52.2306 83.7291 51.6086 76.2291C51.1666 70.9061 51.4646 70.0001 57.5046 58.2901L63.8666 45.9571H68.0066C71.9716 45.9571 72.2176 46.1411 73.8096 50.3101ZM17.8646 89.0441C17.4956 89.6421 17.5816 90.4881 18.0556 90.9241C19.6356 92.3741 44.1946 109.791 48.4326 112.466C52.3406 114.933 52.4886 115.189 50.7616 116.497C47.0396 119.317 52.9536 118.102 60.4616 114.503L67.6686 111.05L72.7936 113.74C81.1126 118.106 80.8806 118.092 84.8296 114.475C86.8316 112.641 92.5576 108.287 97.5536 104.799C119.19 89.6951 118.868 89.9711 116.538 88.5301C115.537 87.9121 114.298 88.7221 94.7506 102.773C86.9586 108.374 80.0876 112.957 79.4806 112.957C78.8746 112.957 76.5966 111.832 74.4186 110.457C69.7116 107.486 64.6096 107.238 61.3036 109.819C57.5646 112.739 55.1786 113.1 52.2246 111.195C50.7436 110.239 42.7826 104.619 34.5346 98.7071C26.2876 92.7951 19.3136 87.9571 19.0376 87.9571C18.7626 87.9571 18.2346 88.4461 17.8646 89.0441Z" fill="black"/>
</svg>
