<svg width="363" height="395" viewBox="0 0 363 395" fill="none" xmlns="http://www.w3.org/2000/svg">
<circle cx="261.684" cy="95.8284" r="33.1712" transform="rotate(90 261.684 95.8284)" fill="#FFFFFF"/>
<ellipse cx="176.912" cy="156.642" rx="31.3284" ry="33.1712" transform="rotate(90 176.912 156.642)" fill="#FFFFFF"/>
<ellipse cx="180.598" cy="31.3284" rx="31.3284" ry="33.1712" transform="rotate(90 180.598 31.3284)" fill="#FFFFFF"/>
<circle cx="105.042" cy="156.642" r="16.5856" transform="rotate(90 105.042 156.642)" fill="#FFFFFF"/>
<circle cx="248.783" cy="156.642" r="16.5856" transform="rotate(90 248.783 156.642)" fill="#FFFFFF"/>
<circle cx="178.756" cy="93.9854" r="16.5856" transform="rotate(90 178.756 93.9854)" fill="#FFFFFF"/>
<ellipse cx="328.027" cy="156.642" rx="31.3284" ry="33.1712" transform="rotate(90 328.027 156.642)" fill="#FFFFFF"/>
<ellipse cx="33.1712" cy="156.642" rx="31.3284" ry="33.1712" transform="rotate(90 33.1712 156.642)" fill="#FFFFFF"/>
<circle cx="99.5139" cy="92.1423" r="33.1712" transform="rotate(90 99.5139 92.1423)" fill="#FFFFFF"/>
<circle cx="100.692" cy="297.569" r="33.1712" transform="rotate(-90.3762 100.692 297.569)" fill="#FFFFFF"/>
<ellipse cx="177.779" cy="236.45" rx="31.3284" ry="33.1712" transform="rotate(-90.3762 177.779 236.45)" fill="#FFFFFF"/>
<circle cx="182.187" cy="359.692" r="33.1712" transform="rotate(-90.3762 182.187 359.692)" fill="#FFFFFF"/>
<circle cx="256.931" cy="235.727" r="16.5856" transform="rotate(-90.3762 256.931 235.727)" fill="#FFFFFF"/>
<circle cx="113.193" cy="236.671" r="16.5856" transform="rotate(-90.3762 113.193 236.671)" fill="#FFFFFF"/>
<circle cx="183.63" cy="298.867" r="16.5856" transform="rotate(-90.3762 183.63 298.867)" fill="#FFFFFF"/>
<ellipse cx="33.9511" cy="237.192" rx="31.3284" ry="33.1712" transform="rotate(-90.3762 33.9511 237.192)" fill="#FFFFFF"/>
<ellipse cx="328.801" cy="235.256" rx="31.3284" ry="33.1712" transform="rotate(-90.3762 328.801 235.256)" fill="#FFFFFF"/>
<circle cx="262.884" cy="300.19" r="33.1712" transform="rotate(-90.3762 262.884 300.19)" fill="#FFFFFF"/>
</svg>
