<svg xmlns="http://www.w3.org/2000/svg" xmlns:xlink="http://www.w3.org/1999/xlink" preserveAspectRatio="xMidYMid" width="353" height="512" viewBox="0 0 353 512">
  <defs>
    <style>
      .cls-1 {
        fill: #fffff0;
        fill-rule: evenodd;
      }
    </style>
  </defs>
  <path d="M299.596,492.223 C266.856,504.976 223.496,512.000 177.500,512.000 C131.504,512.000 88.143,504.976 55.405,492.223 C20.322,478.556 1.001,459.457 1.001,438.443 L1.001,316.814 L1.001,195.186 L1.001,73.557 C1.001,52.543 20.322,33.444 55.405,19.777 C88.144,7.024 131.504,0.000 177.500,0.000 C223.496,0.000 266.856,7.024 299.596,19.778 C334.665,33.439 353.983,52.529 353.998,73.534 C353.998,73.541 353.999,73.548 353.999,73.557 L353.999,195.185 L353.999,195.186 L353.999,195.187 L353.999,316.814 L353.999,316.815 L353.999,316.816 L353.999,438.443 C353.999,459.457 334.678,478.556 299.596,492.223 ZM293.872,34.440 C262.914,22.381 221.585,15.739 177.500,15.739 C133.415,15.739 92.086,22.381 61.128,34.441 C32.928,45.425 16.754,59.684 16.754,73.557 C16.754,87.430 32.928,101.688 61.128,112.673 C92.086,124.731 133.415,131.373 177.500,131.373 C194.032,131.373 210.175,130.439 225.531,128.635 C251.123,125.630 274.523,120.210 293.872,112.672 C322.071,101.687 338.244,87.429 338.244,73.556 C338.244,59.683 322.072,45.425 293.872,34.440 ZM338.247,104.833 C338.232,104.847 338.216,104.860 338.201,104.874 C338.068,104.996 337.926,105.118 337.791,105.241 C326.879,115.151 313.237,122.022 299.597,127.336 C278.112,135.705 252.053,141.606 223.676,144.675 C208.811,146.283 193.312,147.113 177.501,147.113 C131.505,147.113 88.144,140.089 55.406,127.336 C41.510,121.923 27.819,115.070 16.792,104.867 C16.780,104.856 16.768,104.846 16.756,104.835 L16.756,195.185 C16.756,209.057 32.929,223.315 61.129,234.300 C87.250,244.476 120.753,250.795 157.067,252.521 C163.872,252.846 170.687,253.003 177.501,253.003 C226.244,253.003 283.685,249.421 323.633,218.311 C328.940,214.178 333.897,209.287 336.569,203.006 C337.618,200.546 338.247,197.867 338.247,195.186 L338.247,104.833 ZM338.248,226.460 C338.236,226.469 338.224,226.480 338.214,226.489 C335.686,228.808 333.010,230.964 330.216,232.958 C312.833,245.368 291.969,252.653 271.428,257.880 C254.434,262.204 235.727,265.304 216.022,267.057 C215.850,267.071 215.679,267.089 215.507,267.104 C209.022,267.672 202.430,268.091 195.758,268.365 C189.732,268.613 183.641,268.742 177.502,268.742 C131.506,268.742 88.145,261.718 55.407,248.965 C41.755,243.649 28.190,236.822 17.268,226.920 C17.113,226.779 16.951,226.641 16.797,226.499 C16.784,226.487 16.771,226.475 16.757,226.463 L16.757,316.815 C16.757,330.688 32.930,344.946 61.130,355.931 C92.088,367.990 133.417,374.632 177.502,374.632 C189.383,374.632 201.061,374.145 212.392,373.203 C213.205,373.137 214.017,373.066 214.825,372.995 C244.592,370.340 271.857,364.508 293.874,355.931 C305.902,351.246 315.733,345.964 323.063,340.372 C329.234,335.664 335.313,329.701 337.499,322.028 C337.514,321.976 337.523,321.924 337.538,321.873 C337.996,320.225 338.248,318.525 338.248,316.814 L338.248,226.460 ZM338.250,348.088 C338.237,348.100 338.225,348.110 338.212,348.122 C338.040,348.281 337.856,348.439 337.681,348.597 C335.129,350.906 332.426,353.042 329.608,355.017 C320.347,361.504 310.116,366.497 299.598,370.594 C271.090,381.697 234.528,388.455 195.187,390.017 C189.348,390.249 183.449,390.369 177.504,390.369 C131.508,390.369 88.147,383.345 55.409,370.592 C41.722,365.262 28.282,358.521 17.323,348.595 C17.149,348.438 16.967,348.281 16.795,348.123 C16.782,348.111 16.770,348.101 16.757,348.089 L16.757,438.441 C16.757,452.313 32.930,466.571 61.130,477.556 C92.089,489.616 133.416,496.258 177.502,496.258 C221.588,496.258 262.916,489.616 293.875,477.556 C322.074,466.571 338.247,452.315 338.247,438.441 L338.248,438.441 L338.250,438.441 L338.250,348.088 ZM310.076,428.971 C302.127,428.971 295.683,422.533 295.683,414.590 C295.683,406.648 302.127,400.209 310.076,400.209 C318.026,400.209 324.470,406.648 324.470,414.590 C324.470,422.533 318.026,428.971 310.076,428.971 ZM260.120,444.018 C252.171,444.018 245.727,437.580 245.727,429.637 C245.727,421.695 252.171,415.256 260.120,415.256 C268.069,415.256 274.514,421.695 274.514,429.637 C274.514,437.580 268.069,444.018 260.120,444.018 ZM207.108,452.255 C199.159,452.255 192.715,445.817 192.715,437.874 C192.715,429.932 199.159,423.493 207.108,423.493 C215.057,423.493 221.501,429.932 221.501,437.874 C221.501,445.817 215.057,452.255 207.108,452.255 ZM310.076,308.378 C302.127,308.378 295.683,301.939 295.683,293.997 C295.683,286.054 302.127,279.616 310.076,279.616 C318.026,279.616 324.470,286.054 324.470,293.997 C324.470,301.939 318.026,308.378 310.076,308.378 ZM260.120,323.435 C252.171,323.435 245.727,316.996 245.727,309.054 C245.727,301.111 252.171,294.673 260.120,294.673 C268.069,294.673 274.514,301.111 274.514,309.054 C274.514,316.996 268.069,323.435 260.120,323.435 ZM207.108,331.672 C199.159,331.672 192.715,325.233 192.715,317.291 C192.715,309.348 199.159,302.910 207.108,302.910 C215.057,302.910 221.501,309.348 221.501,317.291 C221.501,325.233 215.057,331.672 207.108,331.672 ZM310.076,185.686 C302.127,185.686 295.683,179.248 295.683,171.305 C295.683,163.363 302.127,156.924 310.076,156.924 C318.026,156.924 324.470,163.363 324.470,171.305 C324.470,179.248 318.026,185.686 310.076,185.686 ZM260.120,200.743 C252.171,200.743 245.727,194.305 245.727,186.362 C245.727,178.420 252.171,171.981 260.120,171.981 C268.069,171.981 274.514,178.420 274.514,186.362 C274.514,194.305 268.069,200.743 260.120,200.743 ZM207.108,208.980 C199.159,208.980 192.715,202.542 192.715,194.599 C192.715,186.657 199.159,180.218 207.108,180.218 C215.057,180.218 221.501,186.657 221.501,194.599 C221.501,202.542 215.057,208.980 207.108,208.980 Z" class="cls-1"/>
</svg>
