<svg width="322" height="352" viewBox="72 25 252 252" fill="none" xmlns="http://www.w3.org/2000/svg">
<rect x="71.9822" y="24.8156" width="250" height="250" fill="#00010"/>
<path d="M91.4822 41.3155L308.482 261.412L91.4826 261.412L91.4822 41.3155Z" fill="#333240"/>
<line x1="89.9822" y1="39.8156" x2="89.9822" y2="259.816" stroke="#fffff0" stroke-width="4"/>
<line x1="90.1034" y1="39.8347" x2="308.001" y2="261.694" stroke="#fffff0" stroke-width="3" stroke-linecap="round" stroke-dasharray="8 8"/>
<line x1="307.982" y1="261.816" x2="87.9822" y2="261.816" stroke="#fffff0" stroke-width="4"/>
<path d="M171.278 54.9476H177.254V62.1356C176.366 62.7836 175.418 63.2596 174.41 63.5636C173.41 63.8596 172.35 64.0076 171.23 64.0076C169.798 64.0076 168.502 63.7876 167.342 63.3476C166.182 62.8996 165.19 62.2796 164.366 61.4876C163.542 60.6956 162.906 59.7556 162.458 58.6676C162.01 57.5796 161.786 56.3916 161.786 55.1036C161.786 53.7996 161.998 52.6036 162.422 51.5156C162.854 50.4276 163.466 49.4916 164.258 48.7076C165.05 47.9236 166.006 47.3116 167.126 46.8716C168.254 46.4316 169.514 46.2116 170.906 46.2116C171.626 46.2116 172.298 46.2716 172.922 46.3916C173.546 46.5036 174.122 46.6636 174.65 46.8716C175.178 47.0716 175.662 47.3116 176.102 47.5916C176.542 47.8716 176.942 48.1796 177.302 48.5156L176.258 50.1236C176.098 50.3796 175.89 50.5356 175.634 50.5916C175.378 50.6476 175.098 50.5836 174.794 50.3996C174.506 50.2236 174.222 50.0676 173.942 49.9316C173.67 49.7876 173.378 49.6636 173.066 49.5596C172.754 49.4556 172.414 49.3756 172.046 49.3196C171.678 49.2636 171.254 49.2356 170.774 49.2356C169.966 49.2356 169.234 49.3756 168.578 49.6556C167.922 49.9356 167.362 50.3316 166.898 50.8436C166.442 51.3556 166.09 51.9716 165.842 52.6916C165.594 53.4116 165.47 54.2156 165.47 55.1036C165.47 56.0636 165.606 56.9236 165.878 57.6836C166.15 58.4356 166.534 59.0716 167.03 59.5916C167.526 60.1116 168.118 60.5076 168.806 60.7796C169.502 61.0516 170.274 61.1876 171.122 61.1876C171.698 61.1876 172.21 61.1316 172.658 61.0196C173.114 60.8996 173.558 60.7396 173.99 60.5396V57.6116H172.022C171.79 57.6116 171.606 57.5516 171.47 57.4316C171.342 57.3036 171.278 57.1436 171.278 56.9516V54.9476ZM183.821 49.2236V53.6996H189.629V56.4236H183.821V60.9956H191.285V63.8156H180.197V46.4036H191.285V49.2236H183.821ZM210.45 55.1036C210.45 56.3756 210.234 57.5556 209.802 58.6436C209.378 59.7316 208.774 60.6716 207.99 61.4636C207.214 62.2556 206.278 62.8796 205.182 63.3356C204.086 63.7836 202.87 64.0076 201.534 64.0076C200.198 64.0076 198.982 63.7836 197.886 63.3356C196.79 62.8796 195.85 62.2556 195.066 61.4636C194.282 60.6716 193.674 59.7316 193.242 58.6436C192.818 57.5556 192.606 56.3756 192.606 55.1036C192.606 53.8316 192.818 52.6556 193.242 51.5756C193.674 50.4876 194.282 49.5476 195.066 48.7556C195.85 47.9636 196.79 47.3436 197.886 46.8956C198.982 46.4396 200.198 46.2116 201.534 46.2116C202.87 46.2116 204.086 46.4396 205.182 46.8956C206.278 47.3436 207.214 47.9676 207.99 48.7676C208.774 49.5596 209.378 50.4996 209.802 51.5876C210.234 52.6676 210.45 53.8396 210.45 55.1036ZM206.766 55.1036C206.766 54.1916 206.646 53.3756 206.406 52.6556C206.166 51.9276 205.818 51.3116 205.362 50.8076C204.914 50.2956 204.366 49.9076 203.718 49.6436C203.078 49.3716 202.35 49.2356 201.534 49.2356C200.718 49.2356 199.986 49.3716 199.338 49.6436C198.69 49.9076 198.138 50.2956 197.682 50.8076C197.234 51.3116 196.89 51.9276 196.65 52.6556C196.41 53.3756 196.29 54.1916 196.29 55.1036C196.29 56.0236 196.41 56.8476 196.65 57.5756C196.89 58.2956 197.234 58.9076 197.682 59.4116C198.138 59.9156 198.69 60.3036 199.338 60.5756C199.986 60.8396 200.718 60.9716 201.534 60.9716C202.35 60.9716 203.078 60.8396 203.718 60.5756C204.366 60.3036 204.914 59.9156 205.362 59.4116C205.818 58.9076 206.166 58.2956 206.406 57.5756C206.646 56.8476 206.766 56.0236 206.766 55.1036ZM216.704 49.2236V54.0356H222.968V56.8676H216.704V63.8156H213.08V46.4036H224.168V49.2236H216.704ZM230.297 49.2236V53.6996H236.105V56.4236H230.297V60.9956H237.761V63.8156H226.673V46.4036H237.761V49.2236H230.297ZM255.371 46.4036V63.8156H253.511C253.231 63.8156 252.995 63.7716 252.803 63.6836C252.611 63.5876 252.423 63.4276 252.239 63.2036L243.563 52.1636C243.587 52.4436 243.603 52.7196 243.611 52.9916C243.627 53.2636 243.635 53.5156 243.635 53.7476V63.8156H240.455V46.4036H242.351C242.503 46.4036 242.631 46.4116 242.735 46.4276C242.847 46.4356 242.947 46.4636 243.035 46.5116C243.123 46.5516 243.207 46.6076 243.287 46.6796C243.367 46.7516 243.455 46.8476 243.551 46.9676L252.287 58.0556C252.255 57.7516 252.231 57.4596 252.215 57.1796C252.199 56.8916 252.191 56.6196 252.191 56.3636V46.4036H255.371ZM270.873 59.5316C271.073 59.5316 271.241 59.6036 271.377 59.7476L272.805 61.2716C272.101 62.1676 271.225 62.8476 270.177 63.3116C269.137 63.7756 267.897 64.0076 266.457 64.0076C265.153 64.0076 263.981 63.7876 262.941 63.3476C261.901 62.8996 261.017 62.2796 260.289 61.4876C259.561 60.6956 259.001 59.7556 258.609 58.6676C258.217 57.5796 258.021 56.3916 258.021 55.1036C258.021 54.2396 258.113 53.4196 258.297 52.6436C258.489 51.8596 258.765 51.1396 259.125 50.4836C259.485 49.8276 259.917 49.2356 260.421 48.7076C260.933 48.1796 261.509 47.7316 262.149 47.3636C262.789 46.9876 263.485 46.7036 264.237 46.5116C264.997 46.3116 265.805 46.2116 266.661 46.2116C267.301 46.2116 267.905 46.2676 268.473 46.3796C269.049 46.4916 269.585 46.6476 270.081 46.8476C270.577 47.0476 271.033 47.2916 271.449 47.5796C271.873 47.8596 272.253 48.1676 272.589 48.5036L271.377 50.1596C271.305 50.2636 271.213 50.3556 271.101 50.4356C270.989 50.5156 270.837 50.5556 270.645 50.5556C270.453 50.5556 270.257 50.4876 270.057 50.3516C269.865 50.2156 269.625 50.0636 269.337 49.8956C269.057 49.7276 268.701 49.5756 268.269 49.4396C267.845 49.3036 267.305 49.2356 266.649 49.2356C265.921 49.2356 265.253 49.3676 264.645 49.6316C264.037 49.8956 263.513 50.2796 263.073 50.7836C262.641 51.2796 262.305 51.8916 262.065 52.6196C261.825 53.3476 261.705 54.1756 261.705 55.1036C261.705 56.0396 261.833 56.8756 262.089 57.6116C262.353 58.3396 262.709 58.9556 263.157 59.4596C263.613 59.9636 264.141 60.3476 264.741 60.6116C265.349 60.8676 265.997 60.9956 266.685 60.9956C267.093 60.9956 267.461 60.9756 267.789 60.9356C268.125 60.8956 268.433 60.8276 268.713 60.7316C269.001 60.6356 269.269 60.5116 269.517 60.3596C269.773 60.2076 270.029 60.0156 270.285 59.7836C270.373 59.7116 270.465 59.6516 270.561 59.6036C270.657 59.5556 270.761 59.5316 270.873 59.5316ZM278.461 49.2236V53.6996H284.269V56.4236H278.461V60.9956H285.925V63.8156H274.837V46.4036H285.925V49.2236H278.461ZM294.067 54.6476C294.651 54.6476 295.155 54.5756 295.579 54.4316C296.003 54.2796 296.351 54.0756 296.623 53.8196C296.895 53.5556 297.095 53.2476 297.223 52.8956C297.351 52.5436 297.415 52.1596 297.415 51.7436C297.415 50.9196 297.139 50.2796 296.587 49.8236C296.043 49.3676 295.211 49.1396 294.091 49.1396H292.219V54.6476H294.067ZM302.503 63.8156H299.251C298.643 63.8156 298.203 63.5836 297.931 63.1196L294.619 57.7796C294.483 57.5716 294.331 57.4196 294.163 57.3236C294.003 57.2276 293.763 57.1796 293.443 57.1796H292.219V63.8156H288.619V46.4036H294.091C295.307 46.4036 296.347 46.5316 297.211 46.7876C298.075 47.0356 298.783 47.3836 299.335 47.8316C299.887 48.2796 300.291 48.8156 300.547 49.4396C300.803 50.0556 300.931 50.7356 300.931 51.4796C300.931 52.0556 300.847 52.6036 300.679 53.1236C300.519 53.6356 300.283 54.1036 299.971 54.5276C299.659 54.9516 299.275 55.3276 298.819 55.6556C298.363 55.9836 297.843 56.2476 297.259 56.4476C297.491 56.5756 297.707 56.7316 297.907 56.9156C298.107 57.0916 298.287 57.3036 298.447 57.5516L302.503 63.8156Z" fill="#fffff0"/>
<circle cx="179.482" cy="150.316" r="8.5" fill="#fffff0"/>
<circle cx="179.482" cy="176.316" r="8.5" fill="#fffff0"/>
<circle cx="179.482" cy="202.316" r="8.5" fill="#fffff0"/>
<circle cx="162.482" cy="219.316" r="8.5" fill="#fffff0"/>
<circle cx="205.482" cy="201.316" r="8.5" fill="#fffff0"/>
<circle cx="205.482" cy="176.316" r="8.5" fill="#fffff0"/>
<circle cx="231.482" cy="158.316" r="8.5" fill="#333240"/>
<circle cx="206.482" cy="133.316" r="8.5" fill="#333240"/>
<circle cx="231.482" cy="133.316" r="8.5" fill="#333240"/>
<circle cx="252.482" cy="116.316" r="8.5" fill="#333240"/>
</svg>
