<svg width="1106" height="212" viewBox="0 0 1106 212" fill="none" xmlns="http://www.w3.org/2000/svg">
<path d="M370.6 187H338.4L336 132.8C335.333 119.867 335 108.333 335 98.2C335 90.4667 335.2 83.1333 335.6 76.2L314.2 172.4H283.2L260.4 76.2C261.2 87.8 261.6 98.7333 261.6 109C261.6 116.733 261.4 124.8 261 133.2L258.6 187H226.6L237 48.4H278.4L299.2 142.4L318.6 48.4H360.2L370.6 187ZM482.227 131.8C482.227 136.2 482.027 140 481.627 143.2H415.827C416.893 152.133 419.427 158.4 423.427 162C427.427 165.6 432.96 167.4 440.027 167.4C444.293 167.4 448.427 166.667 452.427 165.2C456.427 163.6 460.76 161.2 465.427 158L478.427 175.6C466.027 185.467 452.227 190.4 437.027 190.4C419.827 190.4 406.627 185.333 397.427 175.2C388.227 165.067 383.627 151.467 383.627 134.4C383.627 123.6 385.56 113.933 389.427 105.4C393.293 96.7333 398.96 89.9333 406.427 85C413.893 79.9333 422.827 77.4 433.227 77.4C448.56 77.4 460.56 82.2 469.227 91.8C477.893 101.4 482.227 114.733 482.227 131.8ZM451.227 122.8C450.96 106.533 445.227 98.4 434.027 98.4C428.56 98.4 424.293 100.4 421.227 104.4C418.293 108.4 416.493 115 415.827 124.2H451.227V122.8ZM557.578 77.8C561.445 77.8 564.978 78.2667 568.178 79.2L563.178 109.8C559.178 108.867 555.978 108.4 553.578 108.4C547.311 108.4 542.511 110.6 539.178 115C535.978 119.267 533.445 125.733 531.578 134.4V187H499.978V80.8H527.578L530.178 101.4C532.578 94.0667 536.178 88.3333 540.978 84.2C545.911 79.9333 551.445 77.8 557.578 77.8ZM620.197 77.4C627.53 77.4 634.13 78.4667 639.997 80.6C645.864 82.7333 651.397 86 656.597 90.4L642.997 109.2C636.33 104.133 629.597 101.6 622.797 101.6C615.73 101.6 610.397 104.2 606.797 109.4C603.197 114.6 601.397 123 601.397 134.6C601.397 145.8 603.197 153.733 606.797 158.4C610.397 163.067 615.597 165.4 622.397 165.4C625.997 165.4 629.264 164.867 632.197 163.8C635.13 162.6 638.664 160.733 642.797 158.2L656.597 177.8C646.064 186.2 634.13 190.4 620.797 190.4C609.997 190.4 600.664 188.133 592.797 183.6C584.93 178.933 578.864 172.467 574.597 164.2C570.33 155.8 568.197 146 568.197 134.8C568.197 123.6 570.33 113.667 574.597 105C578.864 96.3333 584.93 89.6 592.797 84.8C600.664 79.8667 609.797 77.4 620.197 77.4ZM752.347 156.2C752.347 160.2 752.88 163.133 753.947 165C755.147 166.867 757.014 168.267 759.547 169.2L752.947 189.8C746.414 189.267 741.08 187.867 736.947 185.6C732.814 183.2 729.614 179.467 727.347 174.4C720.414 185.067 709.747 190.4 695.347 190.4C684.814 190.4 676.414 187.333 670.147 181.2C663.88 175.067 660.747 167.067 660.747 157.2C660.747 145.6 665.014 136.733 673.547 130.6C682.08 124.467 694.414 121.4 710.547 121.4H721.347V116.8C721.347 110.533 720.014 106.267 717.347 104C714.68 101.6 710.014 100.4 703.347 100.4C699.88 100.4 695.68 100.933 690.747 102C685.814 102.933 680.747 104.267 675.547 106L668.347 85.2C675.014 82.6667 681.814 80.7333 688.747 79.4C695.814 78.0667 702.347 77.4 708.347 77.4C723.547 77.4 734.68 80.5333 741.747 86.8C748.814 93.0667 752.347 102.467 752.347 115V156.2ZM704.547 167.8C711.747 167.8 717.347 164.4 721.347 157.6V138.8H713.547C706.347 138.8 700.947 140.067 697.347 142.6C693.88 145.133 692.147 149.067 692.147 154.4C692.147 158.667 693.214 162 695.347 164.4C697.614 166.667 700.68 167.8 704.547 167.8ZM844.117 182C840.251 184.667 835.717 186.733 830.517 188.2C825.451 189.667 820.384 190.4 815.317 190.4C792.117 190.267 780.517 177.467 780.517 152V102.8H765.517V80.8H780.517V57.8L812.117 54.2V80.8H836.517L833.117 102.8H812.117V151.6C812.117 156.533 812.917 160.067 814.517 162.2C816.117 164.333 818.651 165.4 822.117 165.4C825.717 165.4 829.517 164.267 833.517 162L844.117 182ZM897.15 77.4C913.417 77.4 926.15 82.4 935.35 92.4C944.55 102.267 949.15 116.133 949.15 134C949.15 145.333 947.017 155.267 942.75 163.8C938.617 172.2 932.617 178.733 924.75 183.4C917.017 188.067 907.817 190.4 897.15 190.4C881.017 190.4 868.283 185.467 858.95 175.6C849.75 165.6 845.15 151.667 845.15 133.8C845.15 122.467 847.217 112.6 851.35 104.2C855.617 95.6667 861.617 89.0667 869.35 84.4C877.217 79.7333 886.483 77.4 897.15 77.4ZM897.15 100.6C890.75 100.6 885.95 103.333 882.75 108.8C879.55 114.133 877.95 122.467 877.95 133.8C877.95 145.4 879.483 153.867 882.55 159.2C885.75 164.533 890.617 167.2 897.15 167.2C903.55 167.2 908.35 164.533 911.55 159.2C914.75 153.733 916.35 145.333 916.35 134C916.35 122.4 914.75 113.933 911.55 108.6C908.483 103.267 903.683 100.6 897.15 100.6ZM1025.55 77.8C1029.41 77.8 1032.95 78.2667 1036.15 79.2L1031.15 109.8C1027.15 108.867 1023.95 108.4 1021.55 108.4C1015.28 108.4 1010.48 110.6 1007.15 115C1003.95 119.267 1001.41 125.733 999.547 134.4V187H967.947V80.8H995.547L998.147 101.4C1000.55 94.0667 1004.15 88.3333 1008.95 84.2C1013.88 79.9333 1019.41 77.8 1025.55 77.8Z" fill="#333240"/>
<circle cx="133.526" cy="60.6377" r="16.8361" transform="rotate(90 133.526 60.6377)" fill="#1BADAF"/>
<ellipse cx="90.5001" cy="91.5039" rx="15.9008" ry="16.8361" transform="rotate(90 90.5001 91.5039)" fill="#1BADAF"/>
<ellipse cx="92.3708" cy="27.9008" rx="15.9008" ry="16.8361" transform="rotate(90 92.3708 27.9008)" fill="#1BADAF"/>
<circle cx="54.0219" cy="91.5039" r="8.41806" transform="rotate(90 54.0219 91.5039)" fill="#1BADAF"/>
<circle cx="126.978" cy="91.5039" r="8.41806" transform="rotate(90 126.978 91.5039)" fill="#1BADAF"/>
<circle cx="91.4355" cy="59.7023" r="8.41806" transform="rotate(90 91.4355 59.7023)" fill="#1BADAF"/>
<ellipse cx="167.198" cy="91.5039" rx="15.9008" ry="16.8361" transform="rotate(90 167.198 91.5039)" fill="#1BADAF"/>
<ellipse cx="17.5436" cy="91.5039" rx="15.9008" ry="16.8361" transform="rotate(90 17.5436 91.5039)" fill="#1BADAF"/>
<circle cx="51.2159" cy="58.767" r="16.8361" transform="rotate(90 51.2159 58.767)" fill="#1BADAF"/>
<circle cx="51.8143" cy="163.032" r="16.8361" transform="rotate(-90.3762 51.8143 163.032)" fill="#EBC261"/>
<ellipse cx="90.9402" cy="132.011" rx="15.9008" ry="16.8361" transform="rotate(-90.3762 90.9402 132.011)" fill="#EBC261"/>
<circle cx="93.1772" cy="194.562" r="16.8361" transform="rotate(-90.3762 93.1772 194.562)" fill="#EBC261"/>
<circle cx="131.114" cy="131.644" r="8.41806" transform="rotate(-90.3762 131.114 131.644)" fill="#EBC261"/>
<circle cx="58.159" cy="132.123" r="8.41806" transform="rotate(-90.3762 58.159 132.123)" fill="#EBC261"/>
<circle cx="93.9099" cy="163.691" r="8.41806" transform="rotate(-90.3762 93.9099 163.691)" fill="#EBC261"/>
<ellipse cx="17.9402" cy="132.387" rx="15.9008" ry="16.8361" transform="rotate(-90.3762 17.9402 132.387)" fill="#EBC261"/>
<ellipse cx="167.591" cy="131.405" rx="15.9008" ry="16.8361" transform="rotate(-90.3762 167.591 131.405)" fill="#EBC261"/>
<circle cx="134.135" cy="164.362" r="16.8361" transform="rotate(-90.3762 134.135 164.362)" fill="#EBC261"/>
</svg>
