<svg width="595" height="618" viewBox="0 0 595 618" fill="cornflower" xmlns="http://www.w3.org/2000/svg">
<path fill-rule="evenodd" clip-rule="evenodd" d="M303.864 9.84004C301.961 14.8124 299.802 19.3821 299.068 19.9935C298.065 20.8307 295.636 20.4201 289.276 18.339C284.624 16.8165 280.602 15.7884 280.337 16.0532C279.885 16.5087 282.988 20.4351 289.173 27.2327C290.674 28.8831 291.905 30.7533 291.907 31.3897C291.911 32.4198 275.903 43.7202 274.441 43.7202C273.841 43.7202 263.316 50.4219 261.671 51.8505C260.19 53.1363 269.065 51.7906 275.506 49.7515C297.056 42.9309 297.421 42.9499 303.459 51.2131C306.069 54.7848 308.538 57.707 308.947 57.707C309.769 57.707 310.685 51.8595 311.058 44.2197C311.302 39.2344 311.311 39.2214 315.776 37.8287C324.244 35.1862 325.798 34.4498 326.775 32.6166C327.601 31.065 327.188 30.5405 324.13 29.2568C322.136 28.4195 319.026 27.7352 317.217 27.7352C311.415 27.7352 311.088 26.906 309.23 7.50419C308.875 3.79568 308.301 0.769514 307.955 0.779505C307.608 0.790494 305.767 4.86771 303.864 9.84004ZM415.72 19.0024C412.528 24.0237 406.273 32.8874 404.737 34.5668C404.401 34.9344 392.04 30.7633 386.252 28.3296C384.27 27.4974 382.414 27.0519 382.126 27.3406C381.839 27.6303 383.328 30.6465 385.437 34.0453C395.132 49.6656 394.691 48.6565 392.767 50.7915C391.813 51.8505 387.074 55.3632 382.236 58.5992C375.74 62.9431 373.867 64.6485 375.082 65.117C376.528 65.6745 376.438 66.0682 374.343 68.351L371.956 70.9496L374.939 70.3901C376.58 70.0824 383.667 68.2561 390.689 66.3319C397.711 64.4087 403.976 63.038 404.61 63.2868C405.244 63.5355 407.705 66.4149 410.08 69.6838C415.9 77.6983 419.94 82.2599 420.616 81.5816C420.922 81.2729 420.446 77.0778 419.556 72.2593C418.256 65.218 418.166 62.7373 419.094 59.6212C420.147 56.0915 420.714 55.612 425.436 54.2622C428.288 53.447 431.74 52.5938 433.108 52.367C434.475 52.1403 437.496 51.6357 439.819 51.2461C442.143 50.8564 444.045 50.1861 444.045 49.7565C444.045 49.0182 435.041 45.6004 425.153 42.5862L420.679 41.2225L420.711 26.9859C420.729 19.1562 420.506 12.7533 420.214 12.7582C419.923 12.7632 417.9 15.5726 415.72 19.0024ZM251.642 48.6065C249.454 50.0991 242.519 53.7158 236.229 56.642C220.334 64.0381 198.198 75.1786 190.49 79.6614C186.935 81.7284 178.658 86.444 172.095 90.1395C165.532 93.8351 149.962 102.998 137.494 110.502C115.91 123.491 107.112 129.51 109.577 129.598C110.194 129.621 132.566 118.584 159.294 105.071C186.023 91.5582 210.037 79.6424 212.659 78.5924C216.247 77.1547 255.089 58.8649 255.735 58.3075C256.358 57.772 257.01 45.7403 256.414 45.8042C255.977 45.8522 253.829 47.1129 251.642 48.6065ZM338.884 67.6936C337.101 68.7856 332.85 70.8346 329.437 72.2473C318.646 76.7151 294.289 88.586 281.969 95.3826C263.664 105.482 253.576 111.179 236.93 120.817C226.65 126.768 218.011 131.638 217.734 131.638C217.455 131.638 207.595 137.257 195.822 144.126C184.048 150.994 174.2 156.614 173.935 156.614C173.517 156.614 144.461 173.677 136.299 178.716C134.564 179.787 133.965 180.565 134.867 180.575C137.535 180.604 147.459 176.251 170.106 165.119C182.138 159.205 202.497 149.192 215.348 142.868C246.259 127.656 266.411 117.909 283.958 109.682C334.496 85.9854 367.029 68.9085 365.18 67.0502C363.965 65.8294 352.904 69.1462 347.417 72.3772C341.043 76.1307 339.486 76.1757 342.025 72.5351C343.654 70.1973 344.212 65.6965 342.872 65.7035C342.461 65.7055 340.667 66.6006 338.884 67.6936ZM536.518 117.042C524.031 132.812 520.729 136.413 519.118 136.018C514.653 134.926 503.076 131.389 501.22 130.551C499.69 129.859 475.748 121.647 475.263 121.647C474.55 121.647 483.062 137.571 486.665 142.976C489.285 146.905 493.142 153.334 495.237 157.263L499.045 164.407L497.149 166.882C496.107 168.243 492.011 173.122 488.048 177.722C484.083 182.322 477.935 189.458 474.383 193.579C467.879 201.127 466.39 204.15 469.649 203.193C470.606 202.913 473.851 202.239 476.858 201.698C479.866 201.157 489.335 199.109 497.901 197.147C506.466 195.185 514.338 193.579 515.393 193.579C517.276 193.579 521.885 198.487 527.871 206.865C529.521 209.174 531.158 211.288 531.509 211.562C531.86 211.837 535.255 216.27 539.053 221.413L545.959 230.764L547.7 211.922C548.657 201.559 549.686 190.812 549.986 188.041L550.531 183.002L566.146 178.214C574.734 175.58 584.222 172.744 587.229 171.911C590.237 171.078 593.369 170.175 594.19 169.907C595.01 169.638 586.174 164.754 574.552 159.055C562.931 153.354 553.36 148.339 553.284 147.907C553.207 147.476 552.871 135.975 552.538 122.351L551.931 97.5795L536.518 117.042ZM372.453 152.979C341.521 167.397 315.245 181.119 312.723 184.173C310.172 187.261 313.167 186.778 322.497 182.597C347.449 171.412 351.842 169.453 363.007 164.531C369.57 161.637 376.281 158.532 377.922 157.632C379.563 156.731 383.477 154.957 386.623 153.69C390.748 152.028 392.34 150.862 392.34 149.505C392.34 145.833 385.054 147.106 372.453 152.979ZM434.648 188.278C402.143 193.041 375.229 201.632 307.822 228.761C298.251 232.613 287.289 237.223 283.46 239.006C279.632 240.788 272.697 243.987 268.048 246.115C257.82 250.797 249.851 255.45 245.178 259.468C242.202 262.027 241.994 262.465 243.737 262.488C244.858 262.503 246.201 262.114 246.72 261.624C247.916 260.497 268.284 251.874 281.969 246.699C298.02 240.631 362.482 219.078 376.431 215.116C383.267 213.174 390.202 211.177 391.843 210.677C396.983 209.112 430.767 200.921 452.308 196.019L460.075 194.252L459.733 190.169L459.392 186.086H454.502C451.812 186.086 442.878 187.073 434.648 188.278ZM213.36 219.275C201.832 220.597 188.149 225.894 174.34 234.38C170.918 236.483 165.433 239.696 162.152 241.52C158.87 243.344 153.725 246.459 150.717 248.442C145.24 252.053 127.433 263.103 123.959 265.046C120.557 266.95 93.0354 284.875 75.9458 296.318C54.0098 311.007 43.7045 318.462 45.3352 318.462C47.0236 318.462 64.0744 309.375 86.0919 296.744C95.6584 291.256 105.723 285.575 108.458 284.121C111.192 282.668 114.1 281.04 114.921 280.505C116.479 279.487 156.414 257.373 167.62 251.323C184.99 241.945 189.881 239.227 200.931 232.806C226.486 217.957 226.679 217.747 213.36 219.275ZM233.246 302.309C222.708 306.52 183.103 326.073 176.192 330.477C173.743 332.037 171.237 334.257 170.622 335.411C169.584 337.359 169.7 337.459 172.249 336.817C173.758 336.436 179.487 334.002 184.978 331.408C194.096 327.102 210.019 319.765 221.314 314.666C254.362 299.745 253.361 300.31 248.907 299.11C244.941 298.042 242.862 298.467 233.246 302.309ZM368.123 318.824L360.312 325.942L351.305 321.199C346.351 318.592 342.079 316.677 341.813 316.945C341.546 317.213 342.946 320.067 344.925 323.288C351.47 333.942 351.774 332.828 339.768 342.182C330.331 349.534 328.746 350.417 324.963 350.424C322.633 350.428 316.369 351.147 311.042 352.02C305.015 353.009 299.023 353.377 295.172 352.994C290.61 352.542 287.998 352.801 285.228 353.98C283.162 354.86 276.997 357.293 271.528 359.387C262.883 362.697 250.951 368.559 227.778 380.878C219.14 385.471 192.096 401.485 164.14 418.561C123.766 443.223 50.1845 491.417 41.4901 498.895C30.8606 508.037 40.7801 504.547 70.1757 488.802C77.5586 484.848 92.5482 476.987 103.486 471.334C114.424 465.682 127.847 458.695 133.316 455.809C138.785 452.923 149.971 447.092 158.174 442.853C246.87 397.018 240.199 400.356 286.614 378.598C304.122 370.392 317.532 362.215 325.544 354.86C328.176 352.443 339.231 349.776 350.604 348.812L358.088 348.178L363.53 358.279C366.524 363.833 369.27 368.387 369.634 368.397C369.997 368.407 370.604 364.931 370.982 360.672C372.295 345.843 372.131 346.161 379.453 344.329C382.986 343.445 387.433 342.068 389.336 341.268L392.794 339.813L387.347 337.192C384.35 335.752 380.301 333.926 378.347 333.136L374.794 331.699L375.644 323.832C377.065 310.668 377.069 310.671 368.123 318.824ZM456.992 336.195C453.482 340.454 450.453 344.148 450.261 344.404C450.07 344.659 445.892 343.815 440.976 342.526C436.06 341.238 431.756 340.467 431.411 340.813C430.509 341.721 432.631 345.274 437.138 350.396C439.296 352.849 441.062 355.412 441.062 356.093C441.062 356.773 438.936 358.762 436.339 360.513C430.432 364.497 421.176 373.415 421.176 375.125C421.176 377.034 422.261 376.784 433.371 372.31C445.944 367.249 448.5 366.46 449.68 367.274C450.191 367.627 453.196 371.396 456.358 375.65C459.52 379.904 462.458 383.603 462.888 383.869C463.317 384.135 463.443 379.244 463.168 372.998L462.67 361.641L468.024 360.175C470.969 359.369 475.089 358.308 477.181 357.817C483.765 356.273 482.134 354.972 468.655 351.011C462.13 349.093 462.285 349.585 464.307 337.185C466.159 325.829 465.6 325.753 456.992 336.195ZM50.289 372.624C34.7187 379.665 25.366 384.579 17.3954 389.906C7.65488 396.415 0.572228 403.166 0.572228 405.942C0.572228 407.732 0.210301 407.918 11.0127 400.584C24.4343 391.471 34.3746 385.979 46.3116 381.083C60.0185 375.459 62.4884 374.222 62.6187 372.911C62.7599 371.496 53.271 371.275 50.289 372.624ZM384.326 382.866C374.359 384.324 362.017 389.082 336.657 401.24C324 407.309 297.891 421.555 293.404 424.842C291.763 426.043 287.109 428.959 283.061 431.322C273.025 437.179 255.54 449.492 248.682 455.531C246.232 457.687 254.888 453.604 268.048 446.394C298.115 429.922 339.268 409.588 359.527 401.196C370.862 396.5 399.3 382.746 399.3 381.96C399.3 381.137 393.93 381.462 384.326 382.866ZM295.392 491.135C291.564 493.227 283.957 497.32 278.489 500.232C264.133 507.876 254.893 513.383 255.463 513.955C256.538 515.035 270.419 509.542 287.696 501.201L305.853 492.436L304.688 489.87C304.049 488.458 303.262 487.309 302.938 487.317C302.616 487.325 299.221 489.043 295.392 491.135ZM187.877 511.636C161.763 523.549 138.329 538.132 140.996 540.81C141.527 541.343 144.985 539.611 167.62 527.469C182.367 519.557 186.722 518.069 197.202 517.359C198.019 517.304 198.445 515.565 198.445 512.28C198.445 509.532 198.11 507.332 197.699 507.39C197.288 507.448 192.869 509.359 187.877 511.636ZM327.708 514.385C327.708 518.714 327.968 518.604 322.74 516.478C321.529 515.986 321.573 516.367 322.972 518.513C324.682 521.136 324.671 521.17 321.036 524.182C319.025 525.847 317.577 527.349 317.821 527.518C318.063 527.686 319.912 528.577 321.928 529.497C325.075 530.933 325.638 531.696 325.906 534.885C326.303 539.634 328.037 540.195 330.32 536.311C331.307 534.633 332.51 533.26 332.992 533.26C333.475 533.26 335.236 534.721 336.905 536.507L339.939 539.754L339.255 536.051C338.643 532.735 338.951 531.926 342.213 528.3L345.853 524.252L343.244 522.19C341.231 520.599 340.635 519.243 340.635 516.262C340.635 511.275 339.146 510.409 337.171 514.245C336.313 515.911 335.288 517.269 334.891 517.263C334.496 517.256 333.16 515.683 331.925 513.766C328.969 509.181 327.708 509.366 327.708 514.385ZM305.833 537.278C300.154 542.116 296.494 544.034 294.862 543.026C293.843 542.396 290.972 543.424 285.336 546.434C274.782 552.071 247.497 568.014 243.687 570.77C242.046 571.957 240.033 573.184 239.212 573.498C237.378 574.201 211.185 591.925 195.462 603.103C192.454 605.241 186.535 609.143 182.307 611.773C178.08 614.404 174.836 616.772 175.1 617.036C175.362 617.301 176.584 617.041 177.814 616.46C179.043 615.878 183.405 613.977 187.507 612.234C191.609 610.49 197.426 607.444 200.433 605.464C209.92 599.219 217.885 594.384 239.212 581.924C247.689 576.972 257.757 571.059 261.585 568.784C265.413 566.509 272.349 562.678 276.997 560.271C286.93 555.126 293.781 550.861 304.68 543.034C312.5 537.42 316.312 533.831 311.984 536.157C309.261 537.622 308.768 537.544 309.45 535.758C310.237 533.7 309.834 533.868 305.833 537.278Z" fill="#d2d2d2"/>
</svg>
