<svg width="352" height="166" viewBox="0 0 352 166" fill="none" xmlns="http://www.w3.org/2000/svg">
<path fill-rule="evenodd" clip-rule="evenodd" d="M293.948 20.2628C281.46 36.033 278.159 39.6336 276.547 39.239C272.082 38.147 260.505 34.6093 258.649 33.7711C257.12 33.0797 233.177 24.8675 232.692 24.8675C231.979 24.8675 240.491 40.7915 244.095 46.1964C246.714 50.1257 250.571 56.5547 252.666 60.484L256.474 67.6273L254.578 70.103C253.536 71.4637 249.44 76.3421 245.477 80.9427C241.512 85.5424 235.364 92.6787 231.813 96.7999C225.309 104.348 223.819 107.371 227.079 106.414C228.035 106.133 231.28 105.46 234.288 104.918C237.295 104.378 246.765 102.33 255.33 100.368C263.895 98.4054 271.767 96.7999 272.822 96.7999C274.705 96.7999 279.314 101.707 285.3 110.085C286.951 112.394 288.587 114.508 288.938 114.783C289.289 115.058 292.684 119.491 296.482 124.634L303.388 133.985L305.129 115.143C306.086 104.779 307.116 94.0324 307.415 91.261L307.96 86.2228L323.575 81.4343C332.163 78.8008 341.651 75.9645 344.659 75.1313C347.667 74.298 350.799 73.3959 351.619 73.1271C352.439 72.8584 343.603 67.9749 331.981 62.2753C320.36 56.5747 310.789 51.5594 310.713 51.1278C310.637 50.6962 310.3 39.196 309.967 25.5718L309.36 0.800079L293.948 20.2628ZM192.077 91.4988C159.572 96.2614 132.659 104.852 65.2508 131.982C55.6803 135.833 44.7177 140.444 40.8895 142.226C37.0613 144.008 30.1259 147.207 25.4774 149.335C15.2496 154.017 7.28007 158.671 2.6077 162.689C-0.368346 165.247 -0.577175 165.685 1.16589 165.708C2.2875 165.723 3.62985 165.334 4.14889 164.845C5.34508 163.718 25.713 155.094 39.3981 149.92C55.4496 143.852 119.911 122.299 133.86 118.337C140.696 116.394 147.631 114.397 149.272 113.898C154.412 112.332 188.196 104.142 209.738 99.2395L217.504 97.4722L217.162 93.3891L216.821 89.3069H211.931C209.241 89.3069 200.307 90.294 192.077 91.4988Z" fill="#d2d2d2"/>
</svg>
